<svg width="55" height="55" viewBox="0 0 55 55" fill="none" xmlns="http://www.w3.org/2000/svg">
<g clip-path="url(#clip0_63_688)">
<g clip-path="url(#clip1_63_688)">
<path d="M27.5 0C20.7293 0.00482709 14.1995 2.51309 9.16667 7.04229V2.29167C9.16667 1.68388 8.92522 1.10098 8.49545 0.671214C8.06568 0.241443 7.48279 0 6.875 0C6.26721 0 5.68432 0.241443 5.25455 0.671214C4.82478 1.10098 4.58333 1.68388 4.58333 2.29167V9.16667C4.58333 10.99 5.30766 12.7387 6.59697 14.028C7.88629 15.3173 9.63497 16.0417 11.4583 16.0417H18.3333C18.9411 16.0417 19.524 15.8002 19.9538 15.3705C20.3836 14.9407 20.625 14.3578 20.625 13.75C20.625 13.1422 20.3836 12.5593 19.9538 12.1295C19.524 11.6998 18.9411 11.4583 18.3333 11.4583H11.4583C11.3811 11.4469 11.3045 11.4308 11.2292 11.4102C14.9635 7.64919 19.8874 5.3008 25.1604 4.7659C30.4333 4.231 35.7285 5.54275 40.142 8.47724C44.5556 11.4117 47.8138 15.787 49.3606 20.8563C50.9075 25.9256 50.647 31.3747 48.6236 36.2733C46.6003 41.1719 42.9395 45.2164 38.2661 47.7165C33.5928 50.2166 28.1966 51.0172 22.9987 49.9818C17.8008 48.9463 13.1234 46.1389 9.76492 42.0388C6.40641 37.9387 4.57502 32.8 4.58333 27.5C4.58333 26.8922 4.34189 26.3093 3.91212 25.8795C3.48235 25.4498 2.89945 25.2083 2.29167 25.2083C1.68388 25.2083 1.10098 25.4498 0.671214 25.8795C0.241443 26.3093 0 26.8922 0 27.5C0 32.939 1.61285 38.2558 4.63459 42.7782C7.65632 47.3005 11.9512 50.8253 16.9762 52.9067C22.0012 54.9881 27.5305 55.5327 32.865 54.4716C38.1995 53.4105 43.0995 50.7914 46.9454 46.9454C50.7914 43.0995 53.4105 38.1995 54.4716 32.865C55.5327 27.5305 54.9881 22.0012 52.9067 16.9762C50.8253 11.9512 47.3005 7.65632 42.7782 4.63459C38.2558 1.61285 32.939 0 27.5 0Z" fill="white"/>
<path d="M27.4999 13.75C26.8921 13.75 26.3092 13.9914 25.8795 14.4212C25.4497 14.851 25.2083 15.4339 25.2083 16.0417V27.5C25.2084 28.1077 25.4499 28.6905 25.8797 29.1202L32.7547 35.9952C33.1869 36.4127 33.7658 36.6436 34.3667 36.6384C34.9675 36.6332 35.5423 36.3922 35.9672 35.9673C36.3921 35.5424 36.6331 34.9676 36.6383 34.3668C36.6436 33.7659 36.4126 33.187 35.9951 32.7548L29.7916 26.5513V16.0417C29.7916 15.4339 29.5501 14.851 29.1204 14.4212C28.6906 13.9914 28.1077 13.75 27.4999 13.75Z" fill="white"/>
</g>
</g>
<defs>
<clipPath id="clip0_63_688">
<rect width="55" height="55" fill="white"/>
</clipPath>
<clipPath id="clip1_63_688">
<rect width="55" height="55" fill="white"/>
</clipPath>
</defs>
</svg>