<svg width="55" height="55" viewBox="0 0 55 55" fill="none" xmlns="http://www.w3.org/2000/svg">
<g clip-path="url(#clip0_63_648)">
<path d="M54.5096 44.6692L38.3006 4.20753C36.8706 0.703567 32.8556 -0.992266 29.3379 0.437734L27.2181 1.30398C26.6475 1.53773 26.1365 1.86315 25.6598 2.22523C24.404 0.863984 22.621 -0.00226618 20.6273 -0.00226618H6.875C3.08458 2.54884e-05 0 3.08461 0 6.87502V48.125C0 51.9154 3.08458 55 6.875 55H20.625C24.4154 55 27.5 51.9154 27.5 48.125V20.3844L39.655 50.7306C41.0873 54.2667 45.194 55.9098 48.6131 54.4913L50.7352 53.625C54.1842 52.3096 55.974 48.0448 54.5096 44.6692ZM31.1071 17.0638L37.4733 14.4696L47.0319 38.3304L40.6656 40.9246L31.1071 17.0638ZM28.9483 5.54815L31.0681 4.6819C32.2048 4.20982 33.5821 4.75294 34.0519 5.92627L35.7706 10.214L29.4067 12.8082L27.6948 8.5319C27.2181 7.36315 27.7819 6.02253 28.9529 5.54586L28.9483 5.54815ZM4.58333 16.0417H11.4583V38.9584H4.58333V16.0417ZM16.0417 16.0417H22.9167V38.9584H16.0417V16.0417ZM22.9167 6.87502V11.4584H16.0417V4.58336H20.625C21.8877 4.58336 22.9167 5.61002 22.9167 6.87502ZM6.875 4.58336H11.4583V11.4584H4.58333V6.87502C4.58333 5.61002 5.61229 4.58336 6.875 4.58336ZM4.58333 48.125V43.5417H11.4583V50.4167H6.875C5.61229 50.4167 4.58333 49.39 4.58333 48.125ZM20.625 50.4167H16.0417V43.5417H22.9167V48.125C22.9167 49.39 21.8877 50.4167 20.625 50.4167ZM50.254 48.1456C50.0156 48.7117 49.5733 49.1494 49.0073 49.3809L46.8852 50.2471C45.7142 50.7192 44.3758 50.1623 43.906 49.0096L42.3729 45.1802L48.7392 42.5861L50.2631 46.3925C50.4969 46.9586 50.4946 47.5842 50.2562 48.1479L50.254 48.1456Z" fill="white"/>
</g>
<defs>
<clipPath id="clip0_63_648">
<rect width="55" height="55" fill="white"/>
</clipPath>
</defs>
</svg>