<svg width="55" height="55" viewBox="0 0 55 55" fill="none" xmlns="http://www.w3.org/2000/svg">
<g clip-path="url(#clip0_63_653)">
<path d="M40.7366 48.8904C39.4441 52.5456 35.9584 55 32.0718 55H9.17802C6.49677 55 3.95531 53.8312 2.20219 51.7962C0.476564 49.791 -0.288852 47.1556 0.100731 44.5592C1.02886 38.3763 4.42052 32.6471 10.1864 27.5C4.42052 22.3529 1.02886 16.6238 0.100731 10.4408C-0.288852 7.84667 0.476564 5.20896 2.20219 3.20604C3.95531 1.16875 6.49677 0 9.17802 0H32.0718C35.9584 0 39.4441 2.45437 40.7366 6.10958C41.1605 7.30354 40.5349 8.61208 39.3432 9.03375C38.1493 9.46229 36.8407 8.83208 36.4191 7.64042C35.7705 5.81167 34.0243 4.58333 32.0741 4.58333H9.17802C7.83281 4.58333 6.55406 5.17229 5.67636 6.19438C4.81011 7.20042 4.44115 8.46542 4.63594 9.75792C5.49531 15.4848 9.04052 20.8496 15.173 25.7033C15.723 26.1365 16.0439 26.801 16.0439 27.5C16.0439 28.199 15.723 28.8635 15.173 29.2967C9.04052 34.1504 5.49531 39.5129 4.63594 45.2398C4.44115 46.5323 4.81011 47.7996 5.67636 48.8056C6.55636 49.8277 7.83281 50.4167 9.17802 50.4167H32.0718C34.0243 50.4167 35.7682 49.1883 36.4168 47.3619C36.8407 46.1679 38.1539 45.5377 39.3409 45.9685C40.5349 46.3902 41.1582 47.701 40.7343 48.8927L40.7366 48.8904ZM22.0595 31.955L23.2236 32.8831C25.9095 35.019 29.473 38.4542 31.1849 42.68C31.4714 43.3881 31.3866 44.1902 30.9603 44.8227C30.5341 45.4529 29.8236 45.8333 29.0605 45.8333H12.1893C11.4284 45.8333 10.7157 45.4529 10.2895 44.8227C9.86323 44.1925 9.77844 43.3904 10.0626 42.6846C11.7722 38.4381 15.3334 35.0167 18.0193 32.8923L19.2109 31.9504C20.0451 31.2881 21.2253 31.2904 22.0595 31.955ZM20.6226 36.6758C19.1766 37.8423 17.4807 39.4121 16.1195 41.25H25.1211C23.7599 39.4213 22.0686 37.8492 20.6226 36.6758ZM54.9999 27.5023C54.9999 35.0854 48.833 41.2523 41.2499 41.2523C33.6668 41.2523 27.4999 35.0854 27.4999 27.5023C27.4999 19.9192 33.6668 13.7523 41.2499 13.7523C48.833 13.7523 54.9999 19.9192 54.9999 27.5023ZM50.4166 27.5023C50.4166 22.4469 46.3053 18.3356 41.2499 18.3356C36.1945 18.3356 32.0832 22.4469 32.0832 27.5023C32.0832 32.5577 36.1945 36.669 41.2499 36.669C46.3053 36.669 50.4166 32.5577 50.4166 27.5023ZM43.5416 26.5535V22.919C43.5416 21.654 42.5172 20.6273 41.2499 20.6273C39.9826 20.6273 38.9582 21.654 38.9582 22.919V27.5023C38.9582 28.1096 39.1989 28.694 39.6297 29.1225L41.9214 31.4142C42.3682 31.861 42.9549 32.0856 43.5416 32.0856C44.1282 32.0856 44.7149 31.861 45.1618 31.4142C46.0578 30.5181 46.0578 29.0698 45.1618 28.1737L43.5416 26.5535Z" fill="white"/>
</g>
<defs>
<clipPath id="clip0_63_653">
<rect width="55" height="55" fill="white"/>
</clipPath>
</defs>
</svg>