<svg width="55" height="55" viewBox="0 0 55 55" fill="none" xmlns="http://www.w3.org/2000/svg">
<g clip-path="url(#clip0_63_698)">
<path d="M52.0506 9.34313C51.406 8.56955 50.599 7.94739 49.6869 7.52083C48.7747 7.09427 47.7799 6.87377 46.7729 6.875H9.72125L9.625 6.07062C9.42803 4.39867 8.62442 2.8571 7.36654 1.73818C6.10866 0.619262 4.48394 0.000783277 2.80042 0L2.29167 0C1.68388 0 1.10098 0.241443 0.671214 0.671214C0.241443 1.10098 0 1.68388 0 2.29167C0 2.89945 0.241443 3.48235 0.671214 3.91212C1.10098 4.34189 1.68388 4.58333 2.29167 4.58333H2.80042C3.36172 4.58341 3.90348 4.78948 4.32294 5.16247C4.74239 5.53546 5.01037 6.04942 5.07604 6.60687L8.22938 33.4194C8.55674 36.2079 9.89651 38.7791 11.9944 40.645C14.0922 42.511 16.8022 43.5417 19.6098 43.5417H43.5417C44.1495 43.5417 44.7324 43.3002 45.1621 42.8705C45.5919 42.4407 45.8333 41.8578 45.8333 41.25C45.8333 40.6422 45.5919 40.0593 45.1621 39.6295C44.7324 39.1998 44.1495 38.9583 43.5417 38.9583H19.6098C18.1914 38.9543 16.8089 38.5117 15.6519 37.6912C14.495 36.8706 13.6201 35.7123 13.1473 34.375H40.464C43.1505 34.3752 45.7516 33.4314 47.8129 31.7085C49.8742 29.9856 51.2647 27.5933 51.7412 24.9494L53.5402 14.9715C53.7198 13.9815 53.6794 12.9641 53.422 11.9915C53.1646 11.0188 52.6964 10.1147 52.0506 9.34313ZM49.0417 14.1579L47.2404 24.1358C46.9543 25.724 46.1186 27.1608 44.8797 28.1948C43.6408 29.2288 42.0777 29.7941 40.464 29.7917H12.4185L10.2621 11.4583H46.7729C47.1096 11.4563 47.4425 11.5285 47.7481 11.6698C48.0537 11.811 48.3244 12.0178 48.541 12.2756C48.7576 12.5333 48.9147 12.8356 49.0013 13.1609C49.0878 13.4862 49.1016 13.8266 49.0417 14.1579Z" fill="white"/>
<path d="M16.0416 55C18.5729 55 20.6249 52.948 20.6249 50.4166C20.6249 47.8853 18.5729 45.8333 16.0416 45.8333C13.5103 45.8333 11.4583 47.8853 11.4583 50.4166C11.4583 52.948 13.5103 55 16.0416 55Z" fill="white"/>
<path d="M38.9583 55C41.4896 55 43.5417 52.948 43.5417 50.4166C43.5417 47.8853 41.4896 45.8333 38.9583 45.8333C36.427 45.8333 34.375 47.8853 34.375 50.4166C34.375 52.948 36.427 55 38.9583 55Z" fill="white"/>
</g>
<defs>
<clipPath id="clip0_63_698">
<rect width="55" height="55" fill="white"/>
</clipPath>
</defs>
</svg>