<svg width="44" height="44" viewBox="0 0 44 44" fill="none" xmlns="http://www.w3.org/2000/svg">
<path d="M10.0833 31.1667C11.602 31.1667 12.8333 29.9355 12.8333 28.4167C12.8333 26.8979 11.602 25.6667 10.0833 25.6667C8.56447 25.6667 7.33325 26.8979 7.33325 28.4167C7.33325 29.9355 8.56447 31.1667 10.0833 31.1667Z" fill="white"/>
<path d="M34.8333 5.5H9.16667C6.73641 5.50291 4.40652 6.46962 2.68807 8.18807C0.969617 9.90652 0.00291107 12.2364 0 14.6667L0 29.3333C0.00291107 31.7636 0.969617 34.0935 2.68807 35.8119C4.40652 37.5304 6.73641 38.4971 9.16667 38.5H34.8333C37.2636 38.4971 39.5935 37.5304 41.3119 35.8119C43.0304 34.0935 43.9971 31.7636 44 29.3333V14.6667C43.9971 12.2364 43.0304 9.90652 41.3119 8.18807C39.5935 6.46962 37.2636 5.50291 34.8333 5.5ZM9.16667 9.16667H34.8333C36.292 9.16667 37.691 9.74613 38.7224 10.7776C39.7539 11.809 40.3333 13.208 40.3333 14.6667H3.66667C3.66667 13.208 4.24613 11.809 5.27758 10.7776C6.30903 9.74613 7.70798 9.16667 9.16667 9.16667ZM34.8333 34.8333H9.16667C7.70798 34.8333 6.30903 34.2539 5.27758 33.2224C4.24613 32.191 3.66667 30.792 3.66667 29.3333V18.3333H40.3333V29.3333C40.3333 30.792 39.7539 32.191 38.7224 33.2224C37.691 34.2539 36.292 34.8333 34.8333 34.8333Z" fill="white"/>
</svg>
