<svg width="124" height="44" viewBox="0 0 124 44" fill="none" xmlns="http://www.w3.org/2000/svg">
<path d="M73.5303 32.8153C72.7381 32.8182 71.9532 32.6644 71.221 32.3627C70.4887 32.061 69.8236 31.6174 69.2641 31.0577L63.1016 24.9026C62.8837 24.6946 62.5937 24.5785 62.2921 24.5785C61.9905 24.5785 61.7006 24.6946 61.4826 24.9026L55.2993 31.0746C54.7402 31.6352 54.0752 32.0796 53.343 32.3821C52.6107 32.6847 51.8256 32.8395 51.0331 32.8374H49.8267L57.6355 40.6319C58.8066 41.7985 60.3936 42.4536 62.0481 42.4536C63.7026 42.4536 65.2896 41.7985 66.4607 40.6319L74.2852 32.8205L73.5303 32.8153Z" fill="white"/>
<path d="M51.0344 11.0635C51.827 11.0614 52.612 11.2161 53.3443 11.5187C54.0766 11.8212 54.7415 12.2657 55.3006 12.8263L61.4839 18.9996C61.6988 19.2135 61.9899 19.3336 62.2934 19.3336C62.5969 19.3336 62.888 19.2135 63.1029 18.9996L69.2641 12.8497C69.8228 12.2884 70.4876 11.8434 71.2199 11.5405C71.9523 11.2377 72.7376 11.083 73.5303 11.0856H74.2721L66.4477 3.27546C65.8683 2.69691 65.1804 2.23797 64.4233 1.92485C63.6661 1.61173 62.8546 1.45056 62.0351 1.45056C61.2155 1.45056 60.404 1.61173 59.6469 1.92485C58.8898 2.23797 58.2019 2.69691 57.6225 3.27546L49.8267 11.0635H51.0344Z" fill="white"/>
<path d="M80.7442 17.5472L76.0159 12.8276C75.9093 12.8711 75.7954 12.894 75.6802 12.8952H73.5301C72.4113 12.898 71.3389 13.3415 70.5459 14.1293L64.3847 20.2753C63.8299 20.8281 63.0779 21.1386 62.2939 21.1386C61.5099 21.1386 60.758 20.8281 60.2031 20.2753L54.0185 14.1059C53.2258 13.3176 52.1533 12.8736 51.0343 12.8705H48.3949C48.2861 12.868 48.1786 12.8465 48.0773 12.8068L43.3192 17.5472C42.1505 18.7162 41.4941 20.3002 41.4941 21.9517C41.4941 23.6032 42.1505 25.1873 43.3192 26.3563L48.0669 31.0953C48.168 31.0549 48.2756 31.0334 48.3845 31.0317H51.0343C52.1532 31.0284 53.2257 30.5844 54.0185 29.7963L60.2018 23.6243C61.3198 22.5097 63.2681 22.5097 64.3847 23.6243L70.5459 29.7729C71.3389 30.5607 72.4113 31.0042 73.5301 31.007H75.6802C75.7954 31.0078 75.9094 31.0307 76.0159 31.0746L80.7442 26.355C81.3238 25.7766 81.7836 25.09 82.0973 24.3342C82.411 23.5785 82.5724 22.7685 82.5724 21.9504C82.5724 21.1324 82.411 20.3224 82.0973 19.5666C81.7836 18.8109 81.3238 18.1242 80.7442 17.5459" fill="white"/>
</svg>
