<svg width="16" height="16" viewBox="0 0 16 16" fill="none" xmlns="http://www.w3.org/2000/svg">
<path d="M15.178 13.9531L11.3616 10.2225C12.4016 8.97913 12.9129 7.39256 12.7898 5.79098C12.6667 4.1894 11.9186 2.69534 10.7002 1.61783C9.4818 0.540324 7.88635 -0.038187 6.24384 0.00195787C4.60134 0.0421028 3.03745 0.697832 1.87566 1.83351C0.713875 2.96919 0.0430706 4.49794 0.00200288 6.10353C-0.0390649 7.70913 0.552746 9.26873 1.65502 10.4597C2.7573 11.6508 4.28571 12.3821 5.92411 12.5024C7.56251 12.6227 9.18554 12.1229 10.4575 11.1063L14.2739 14.8369C14.3945 14.9507 14.556 15.0137 14.7236 15.0123C14.8913 15.0109 15.0516 14.9451 15.1702 14.8293C15.2887 14.7134 15.356 14.5566 15.3574 14.3928C15.3589 14.2289 15.2944 14.071 15.178 13.9531ZM6.41414 11.27C5.4025 11.27 4.41358 10.9768 3.57243 10.4274C2.73129 9.87795 2.07569 9.09705 1.68855 8.18342C1.30141 7.26979 1.20012 6.26446 1.39748 5.29455C1.59484 4.32465 2.082 3.43373 2.79733 2.73447C3.51267 2.03521 4.42407 1.559 5.41627 1.36608C6.40847 1.17315 7.43691 1.27217 8.37155 1.65061C9.30618 2.02905 10.105 2.66991 10.6671 3.49215C11.2291 4.3144 11.5291 5.2811 11.5291 6.27001C11.5276 7.59563 10.9882 8.86654 10.0293 9.80389C9.07036 10.7413 7.77024 11.2685 6.41414 11.27Z" fill="black"/>
</svg>