<svg width="42" height="42" viewBox="0 0 42 42" fill="none" xmlns="http://www.w3.org/2000/svg">
<path d="M33.25 19.25H15.75L21.5075 13.4925C21.6715 13.3298 21.8017 13.1363 21.8906 12.923C21.9794 12.7098 22.0251 12.481 22.0251 12.25C22.0251 12.019 21.9794 11.7902 21.8906 11.577C21.8017 11.3637 21.6715 11.1702 21.5075 11.0075C21.1796 10.6816 20.7361 10.4986 20.2738 10.4986C19.8114 10.4986 19.3679 10.6816 19.04 11.0075L11.5325 18.5325C10.8752 19.1859 10.5039 20.0732 10.5 21C10.5085 21.9207 10.8795 22.8009 11.5325 23.45L19.04 30.975C19.2032 31.137 19.3966 31.2653 19.6094 31.3526C19.8221 31.4398 20.05 31.4843 20.2799 31.4835C20.5099 31.4827 20.7374 31.4366 20.9495 31.3478C21.1617 31.2591 21.3542 31.1294 21.5163 30.9662C21.6783 30.8031 21.8066 30.6096 21.8938 30.3968C21.981 30.1841 22.0255 29.9563 22.0247 29.7263C22.0239 29.4964 21.9778 29.2688 21.8891 29.0567C21.8003 28.8446 21.6707 28.652 21.5075 28.49L15.75 22.75H33.25C33.7141 22.75 34.1593 22.5656 34.4874 22.2374C34.8156 21.9092 35 21.4641 35 21C35 20.5359 34.8156 20.0908 34.4874 19.7626C34.1593 19.4344 33.7141 19.25 33.25 19.25Z" fill="white"/>
</svg>