<svg width="21" height="17" viewBox="0 0 21 17" fill="none" xmlns="http://www.w3.org/2000/svg">
<path d="M20.3621 5.9185C19.005 3.70825 15.918 0 10.5 0C5.08198 0 1.99498 3.70825 0.637859 5.9185C0.218321 6.59707 -0.00390625 7.37909 -0.00390625 8.17688C-0.00390625 8.97466 0.218321 9.75668 0.637859 10.4353C1.99498 12.6455 5.08198 16.3538 10.5 16.3538C15.918 16.3538 19.005 12.6455 20.3621 10.4353C20.7816 9.75668 21.0039 8.97466 21.0039 8.17688C21.0039 7.37909 20.7816 6.59707 20.3621 5.9185ZM18.8702 9.51913C17.7047 11.4144 15.0666 14.6038 10.5 14.6038C5.93336 14.6038 3.29523 11.4144 2.12973 9.51913C1.88048 9.11579 1.74845 8.65102 1.74845 8.17688C1.74845 7.70274 1.88048 7.23796 2.12973 6.83463C3.29523 4.93938 5.93336 1.75 10.5 1.75C15.0666 1.75 17.7047 4.93587 18.8702 6.83463C19.1195 7.23796 19.2515 7.70274 19.2515 8.17688C19.2515 8.65102 19.1195 9.11579 18.8702 9.51913Z" fill="#474747"/>
<path d="M10.5 3.80188C9.63471 3.80188 8.78885 4.05847 8.06938 4.5392C7.34992 5.01993 6.78916 5.70321 6.45803 6.50264C6.1269 7.30207 6.04026 8.18173 6.20907 9.0304C6.37788 9.87907 6.79456 10.6586 7.40641 11.2705C8.01826 11.8823 8.79782 12.299 9.64648 12.4678C10.4951 12.6366 11.3748 12.55 12.1742 12.2189C12.9737 11.8877 13.6569 11.327 14.1377 10.6075C14.6184 9.88803 14.875 9.04217 14.875 8.17688C14.8736 7.01698 14.4122 5.90499 13.5921 5.08482C12.7719 4.26465 11.6599 3.80327 10.5 3.80188ZM10.5 10.8019C9.98083 10.8019 9.47331 10.6479 9.04163 10.3595C8.60995 10.071 8.2735 9.66108 8.07482 9.18142C7.87614 8.70177 7.82415 8.17397 7.92544 7.66477C8.02673 7.15557 8.27673 6.68784 8.64385 6.32072C9.01096 5.95361 9.47869 5.7036 9.98789 5.60232C10.4971 5.50103 11.0249 5.55302 11.5045 5.7517C11.9842 5.95038 12.3942 6.28683 12.6826 6.71851C12.971 7.15019 13.125 7.6577 13.125 8.17688C13.125 8.87307 12.8484 9.54075 12.3562 10.033C11.8639 10.5253 11.1962 10.8019 10.5 10.8019Z" fill="#474747"/>
</svg>