<svg width="275" height="102" viewBox="0 0 275 102" fill="none" xmlns="http://www.w3.org/2000/svg">
<path d="M27.4385 4.19753C27.4385 1.90201 29.2805 0 31.6487 0H37.9641C43.7531 0 48.4896 4.72222 48.4896 10.4938C48.4896 16.331 43.7531 20.9877 37.9641 20.9877H31.6487V27.284C31.6487 28.4645 30.6619 29.3827 29.5436 29.3827C28.3595 29.3827 27.4385 28.4645 27.4385 27.284V4.19753ZM31.6487 16.7901H37.9641C41.4506 16.7901 44.2794 13.9699 44.2794 10.4938C44.2794 7.01775 41.4506 4.19753 37.9641 4.19753H31.6487V16.7901Z" fill="white"/>
<path d="M63.2254 4.19753C59.4099 4.19753 55.9891 6.23071 54.0813 9.44445C52.1736 12.7238 52.1736 16.7245 54.0813 19.9383C55.9891 23.2176 59.4099 25.1852 63.2254 25.1852C66.9752 25.1852 70.396 23.2176 72.3037 19.9383C74.2115 16.7245 74.2115 12.7238 72.3037 9.44445C70.396 6.23071 66.9752 4.19753 63.2254 4.19753ZM77.9612 14.6914C77.9612 20.0039 75.1325 24.7917 70.5933 27.4151C65.9884 30.1042 60.3967 30.1042 55.8575 27.4151C51.2526 24.7917 48.4896 20.0039 48.4896 14.6914C48.4896 9.44445 51.2526 4.65664 55.8575 2.03318C60.3967 -0.655864 65.9884 -0.655864 70.5933 2.03318C75.1325 4.65664 77.9612 9.44445 77.9612 14.6914Z" fill="white"/>
<path d="M82.1715 0H89.5394C94.7364 0 99.0124 4.26312 99.0124 9.44445C99.0124 13.4452 96.5126 16.8557 93.0918 18.233L98.6177 26.1034C99.2755 27.0872 99.0124 28.3989 98.0914 29.0548C97.1046 29.7107 95.7889 29.4483 95.1311 28.5301L88.421 18.8889H82.1715V27.284C82.1715 28.4645 81.1847 29.3827 80.0664 29.3827C78.8822 29.3827 77.9612 28.4645 77.9612 27.284V4.19753C77.9612 1.90201 79.8032 0 82.1715 0ZM89.5394 14.6914C92.4339 14.6914 94.8022 12.3958 94.8022 9.44445C94.8022 6.55864 92.4339 4.19753 89.5394 4.19753H82.1715V14.6914H89.5394Z" fill="white"/>
<path d="M101.118 0H122.169C123.287 0 124.274 0.983796 124.274 2.09877C124.274 3.27932 123.287 4.19753 122.169 4.19753H113.748V27.284C113.748 28.4645 112.761 29.3827 111.643 29.3827C110.459 29.3827 109.538 28.4645 109.538 27.284V4.19753H101.118C99.9334 4.19753 99.0124 3.27932 99.0124 2.09877C99.0124 0.983796 99.9334 0 101.118 0Z" fill="white"/>
<path d="M138.812 1.31173L149.338 26.4969C149.798 27.5463 149.272 28.7924 148.219 29.2515C147.101 29.7107 145.917 29.186 145.456 28.1366L143.351 23.0864H130.392L128.287 28.1366C127.826 29.186 126.642 29.7107 125.524 29.2515C124.471 28.7924 123.945 27.5463 124.405 26.4969L134.931 1.31173C135.26 0.524691 136.049 0 136.904 0C137.694 0 138.483 0.524691 138.812 1.31173ZM141.641 18.8889L136.904 7.60803L132.168 18.8889H141.641Z" fill="white"/>
<path d="M153.745 0C154.864 0 155.85 0.983796 155.85 2.09877V25.1852H168.481C169.6 25.1852 170.586 26.169 170.586 27.284C170.586 28.4645 169.6 29.3827 168.481 29.3827H153.745C152.561 29.3827 151.64 28.4645 151.64 27.284V2.09877C151.64 0.983796 152.561 0 153.745 0Z" fill="white"/>
<path d="M183.217 4.19753C183.217 1.90201 185.059 0 187.427 0H193.743C201.834 0 208.478 6.62423 208.478 14.6914C208.478 22.8241 201.834 29.3827 193.743 29.3827H187.427C185.059 29.3827 183.217 27.5463 183.217 25.1852V4.19753ZM193.743 4.19753H187.427V25.1852H193.743C199.532 25.1852 204.268 20.5286 204.268 14.6914C204.268 8.91975 199.532 4.19753 193.743 4.19753Z" fill="white"/>
<path d="M223.214 4.19753C219.399 4.19753 215.978 6.23071 214.07 9.44445C212.162 12.7238 212.162 16.7245 214.07 19.9383C215.978 23.2176 219.399 25.1852 223.214 25.1852C226.964 25.1852 230.385 23.2176 232.292 19.9383C234.2 16.7245 234.2 12.7238 232.292 9.44445C230.385 6.23071 226.964 4.19753 223.214 4.19753ZM237.95 14.6914C237.95 20.0039 235.121 24.7917 230.582 27.4151C225.977 30.1042 220.385 30.1042 215.846 27.4151C211.241 24.7917 208.478 20.0039 208.478 14.6914C208.478 9.44445 211.241 4.65664 215.846 2.03318C220.385 -0.655864 225.977 -0.655864 230.582 2.03318C235.121 4.65664 237.95 9.44445 237.95 14.6914Z" fill="white"/>
<path d="M29.1489 42.5L50.2 92.8704C51.121 94.9691 50.0685 97.4614 47.9633 98.3796C45.7267 99.2979 43.3584 98.2485 42.4374 96.1497L38.2272 86.0494H12.308L8.09773 96.1497C7.17674 98.2485 4.80849 99.2979 2.57181 98.3796C0.46669 97.4614 -0.585867 94.9691 0.335121 92.8704L21.3863 42.5C22.0441 40.9259 23.623 39.8765 25.3334 39.8765C26.9122 39.8765 28.491 40.9259 29.1489 42.5ZM34.8064 77.6543L25.3334 55.0926L15.8603 77.6543H34.8064Z" fill="white"/>
<path d="M59.0152 39.8765C61.2519 39.8765 63.2254 41.8441 63.2254 44.0741V90.2469H88.4868C90.7235 90.2469 92.697 92.2145 92.697 94.4445C92.697 96.8056 90.7235 98.642 88.4868 98.642H59.0152C56.6469 98.642 54.805 96.8056 54.805 94.4445V44.0741C54.805 41.8441 56.6469 39.8765 59.0152 39.8765Z" fill="white"/>
<path d="M168.297 40.1389C169.876 39.6142 171.849 40.1389 172.902 41.4506L207.636 82.9012V44.0741C207.636 41.8441 209.478 39.8765 211.847 39.8765C214.083 39.8765 216.057 41.8441 216.057 44.0741V94.4445C216.057 96.2809 214.873 97.8549 213.162 98.5108C211.583 99.0355 209.741 98.5108 208.557 97.1991L173.954 55.7485V94.4445C173.954 96.8056 171.981 98.642 169.744 98.642C167.376 98.642 165.534 96.8056 165.534 94.4445V44.0741C165.534 42.3688 166.587 40.7948 168.297 40.1389Z" fill="white"/>
<path d="M245.528 48.2716C237.897 48.2716 231.056 52.338 227.24 58.7654C223.425 65.3241 223.425 73.3256 227.24 79.7531C231.056 86.3117 237.897 90.2469 245.528 90.2469C253.028 90.2469 259.869 86.3117 263.685 79.7531C267.501 73.3256 267.501 65.3241 263.685 58.7654C259.869 52.338 253.028 48.2716 245.528 48.2716ZM275 69.2593C275 79.8843 269.342 89.4599 260.264 94.7068C251.054 100.085 239.871 100.085 230.793 94.7068C221.583 89.4599 216.057 79.8843 216.057 69.2593C216.057 58.7654 221.583 49.1898 230.793 43.9429C239.871 38.5648 251.054 38.5648 260.264 43.9429C269.342 49.1898 275 58.7654 275 69.2593Z" fill="white"/>
<path d="M127.702 69.6635H156.186C156.186 84.8436 143.843 97.1495 128.617 97.1495H127.702V69.6635Z" fill="#0B4A94"/>
<path d="M99.2176 42.1774H127.702V69.6635H99.2176V42.1774Z" fill="#0B4A94"/>
<path d="M127.702 37.3269H161.213V69.6635H156.186V42.1774H127.702V37.3269Z" fill="#FAB720"/>
<path d="M127.702 102C123.301 102 118.943 101.164 114.878 99.5384C110.812 97.9134 107.118 95.5314 104.006 92.5288C100.894 89.5261 98.426 85.9615 96.7419 82.0383C95.0578 78.1151 94.1909 73.91 94.1909 69.6635H127.702V102ZM99.2176 69.6635C99.2176 73.0474 99.865 76.4003 101.125 79.5539L101.386 80.1823C102.728 83.3085 104.656 86.1666 107.071 88.6146L107.56 89.0993C110.04 91.4921 112.955 93.4207 116.157 94.7906L116.801 95.0574C120.257 96.4387 123.961 97.1495 127.702 97.1495V69.6635H99.2176Z" fill="#FAB720"/>
</svg>