<svg width="14" height="13" viewBox="0 0 14 13" fill="none" xmlns="http://www.w3.org/2000/svg">
<g clip-path="url(#clip0_19_687)">
<path d="M13.3309 0.621839C12.9343 0.254154 12.3968 0.0476379 11.8364 0.0476379C11.276 0.0476379 10.7385 0.254154 10.3419 0.621839L0.854592 9.43151C0.582905 9.68237 0.367487 9.98076 0.220799 10.3094C0.0741119 10.6381 -0.000932153 10.9905 8.73905e-06 11.3463V12.4583C8.73905e-06 12.602 0.0614669 12.7398 0.170863 12.8414C0.280259 12.9429 0.428632 13 0.583342 13H1.78093C2.16404 13.001 2.54356 12.9314 2.89752 12.7953C3.25148 12.6592 3.57284 12.4592 3.84301 12.207L13.3309 3.3968C13.7267 3.02857 13.949 2.52957 13.949 2.00932C13.949 1.48907 13.7267 0.990067 13.3309 0.621839ZM3.01818 11.4411C2.68918 11.7446 2.24465 11.9154 1.78093 11.9167H1.16668V11.3463C1.16609 11.1328 1.2111 10.9214 1.29911 10.7242C1.38713 10.527 1.51639 10.3479 1.67943 10.1974L8.87951 3.51163L10.2212 4.75746L3.01818 11.4411ZM12.5055 2.63088L11.0437 3.98884L9.70201 2.74571L11.1644 1.38776C11.2525 1.30613 11.3571 1.24142 11.4721 1.19731C11.5871 1.1532 11.7104 1.13057 11.8348 1.13069C11.9593 1.13082 12.0825 1.1537 12.1974 1.19804C12.3123 1.24238 12.4167 1.30731 12.5046 1.38911C12.5925 1.47091 12.6622 1.56799 12.7097 1.6748C12.7572 1.78162 12.7816 1.89607 12.7815 2.01163C12.7813 2.12719 12.7567 2.24159 12.7089 2.34831C12.6612 2.45503 12.5913 2.55196 12.5032 2.63359L12.5055 2.63088Z" fill="black"/>
</g>
<defs>
<clipPath id="clip0_19_687">
<rect width="14" height="13" fill="white"/>
</clipPath>
</defs>
</svg>