<svg width="35" height="35" viewBox="0 0 35 35" fill="none" xmlns="http://www.w3.org/2000/svg">
<path d="M9.47917 23.3333H1.45833C0.653333 23.3333 0 22.68 0 21.875C0 21.07 0.653333 20.4167 1.45833 20.4167H8.69896L11.1825 16.6906C11.4698 16.259 11.9729 16.0008 12.4862 16.0446C13.0054 16.0767 13.4677 16.3829 13.701 16.8481L16.9517 23.3508L18.4742 21.0671C18.7454 20.6617 19.2004 20.4181 19.6875 20.4181H26.25C27.055 20.4181 27.7083 21.0715 27.7083 21.8765C27.7083 22.6815 27.055 23.3348 26.25 23.3348H20.4677L17.9842 27.0608C17.7129 27.4677 17.2565 27.7098 16.7708 27.7098C16.7402 27.7098 16.7096 27.7098 16.6804 27.7069C16.1612 27.6748 15.699 27.3685 15.4656 26.9033L12.215 20.4006L10.6925 22.6844C10.4212 23.0898 9.96625 23.3333 9.47917 23.3333ZM32.0833 15.2906V27.7083C32.0833 31.729 28.8123 35 24.7917 35H10.2083C6.18771 35 2.91667 31.729 2.91667 27.7083C2.91667 26.9033 3.57 26.25 4.375 26.25C5.18 26.25 5.83333 26.9033 5.83333 27.7083C5.83333 30.1204 7.79625 32.0833 10.2083 32.0833H24.7917C27.2037 32.0833 29.1667 30.1204 29.1667 27.7083V15.2906C29.1667 15.0529 29.155 14.8167 29.1331 14.5833H21.875C19.4629 14.5833 17.5 12.6204 17.5 10.2083V2.95021C17.2667 2.92833 17.0304 2.91667 16.7927 2.91667H10.2083C7.79625 2.91667 5.83333 4.87958 5.83333 7.29167V16.0417C5.83333 16.8467 5.18 17.5 4.375 17.5C3.57 17.5 2.91667 16.8467 2.91667 16.0417V7.29167C2.91667 3.27104 6.18771 0 10.2083 0H16.7927C19.5198 0 22.0821 1.06167 24.0115 2.98958L29.0938 8.07187C31.0217 9.99979 32.0833 12.5635 32.0833 15.2906ZM28.2056 11.6667C27.8877 11.114 27.4954 10.5977 27.0317 10.1354L21.9494 5.05312C21.4856 4.58938 20.9708 4.19708 20.4181 3.87917V10.2098C20.4181 11.0133 21.0729 11.6681 21.8765 11.6681H28.2071L28.2056 11.6667Z" fill="white"/>
</svg>
