<svg width="35" height="35" viewBox="0 0 35 35" fill="none" xmlns="http://www.w3.org/2000/svg">
<g clip-path="url(#clip0_94_735)">
<path d="M32.1665 7.62707L21.4127 2.50395C19.0456 1.09 16.0993 1.06491 13.7084 2.43832L2.83361 7.62707C2.7928 7.64751 2.75049 7.66938 2.71111 7.6927C0.130409 9.1683 -0.765509 12.4566 0.710096 15.0373C1.21028 15.9122 1.94603 16.629 2.83361 17.1063L5.83343 18.5354V25.6813C5.8352 28.8766 7.91435 31.6995 10.9653 32.6492C13.0885 33.2634 15.29 33.5641 17.5001 33.5417C19.7099 33.5664 21.9114 33.2683 24.0349 32.6565C27.0859 31.7069 29.165 28.8839 29.1668 25.6886V18.5325L32.0835 17.1383V29.1666C32.0835 29.972 32.7364 30.6249 33.5418 30.6249C34.3472 30.6249 35.0001 29.972 35.0001 29.1666V11.6666C35.0098 9.95416 33.6577 8.37219 32.1665 7.62707ZM26.25 25.6886C26.2508 27.5998 25.0108 29.2904 23.1875 29.8638C21.3387 30.392 19.4228 30.6485 17.5 30.625C15.5773 30.6485 13.6614 30.392 11.8125 29.8638C9.98934 29.2904 8.7493 27.5998 8.75005 25.6886V19.9253L13.5874 22.2295C14.7809 22.9382 16.1441 23.3106 17.5322 23.3071C18.8534 23.3165 20.1525 22.9667 21.2903 22.2951L26.25 19.9252V25.6886ZM30.9167 14.4739L19.918 19.7239C18.3844 20.6169 16.4835 20.5916 14.9742 19.6583L4.21317 14.5396C3.01367 13.8928 2.56564 12.396 3.21246 11.1966C3.43121 10.7909 3.7592 10.4547 4.15924 10.2258L15.0894 5.00501C16.6235 4.11401 18.5233 4.13924 20.0332 5.07063L30.7869 10.1938C31.5778 10.6329 32.0726 11.4622 32.0834 12.3667C32.0848 13.2235 31.6436 14.0203 30.9167 14.4739Z" fill="white"/>
</g>
<defs>
<clipPath id="clip0_94_735">
<rect width="35" height="35" fill="white"/>
</clipPath>
</defs>
</svg>