<svg width="33" height="33" viewBox="0 0 33 33" fill="none" xmlns="http://www.w3.org/2000/svg">
<g clip-path="url(#clip0_34_423)">
<path d="M9.625 33C11.1438 33 12.375 31.7688 12.375 30.25C12.375 28.7312 11.1438 27.5 9.625 27.5C8.10622 27.5 6.875 28.7312 6.875 30.25C6.875 31.7688 8.10622 33 9.625 33Z" fill="white"/>
<path d="M23.375 33C24.8938 33 26.125 31.7688 26.125 30.25C26.125 28.7312 24.8938 27.5 23.375 27.5C21.8562 27.5 20.625 28.7312 20.625 30.25C20.625 31.7688 21.8562 33 23.375 33Z" fill="white"/>
<path d="M31.625 4.125H28.875V1.375C28.875 1.01033 28.7301 0.660591 28.4723 0.402728C28.2144 0.144866 27.8647 0 27.5 0C27.1353 0 26.7856 0.144866 26.5277 0.402728C26.2699 0.660591 26.125 1.01033 26.125 1.375V4.125H23.375C23.0103 4.125 22.6606 4.26987 22.4027 4.52773C22.1449 4.78559 22 5.13533 22 5.5C22 5.86467 22.1449 6.21441 22.4027 6.47227C22.6606 6.73013 23.0103 6.875 23.375 6.875H26.125V9.625C26.125 9.98967 26.2699 10.3394 26.5277 10.5973C26.7856 10.8551 27.1353 11 27.5 11C27.8647 11 28.2144 10.8551 28.4723 10.5973C28.7301 10.3394 28.875 9.98967 28.875 9.625V6.875H31.625C31.9897 6.875 32.3394 6.73013 32.5973 6.47227C32.8551 6.21441 33 5.86467 33 5.5C33 5.13533 32.8551 4.78559 32.5973 4.52773C32.3394 4.26987 31.9897 4.125 31.625 4.125Z" fill="white"/>
<path d="M29.9351 13.3733C29.7573 13.34 29.5747 13.3423 29.3979 13.3802C29.221 13.418 29.0534 13.4906 28.9048 13.5936C28.7561 13.6967 28.6295 13.8283 28.5321 13.9807C28.4347 14.1331 28.3685 14.3033 28.3374 14.4815C28.1659 15.4332 27.6655 16.2944 26.9236 16.9147C26.1817 17.535 25.2454 17.8749 24.2784 17.875H7.44975L6.15725 6.875H17.875C18.2397 6.875 18.5894 6.73013 18.8473 6.47227C19.1051 6.21441 19.25 5.86467 19.25 5.5C19.25 5.13533 19.1051 4.78559 18.8473 4.52773C18.5894 4.26987 18.2397 4.125 17.875 4.125H5.83275L5.775 3.641C5.6565 2.63807 5.17421 1.71346 4.41951 1.04239C3.66481 0.371325 2.69015 0.00043015 1.68025 0L1.375 0C1.01033 0 0.660591 0.144866 0.402728 0.402728C0.144866 0.660591 0 1.01033 0 1.375C0 1.73967 0.144866 2.08941 0.402728 2.34727C0.660591 2.60513 1.01033 2.75 1.375 2.75H1.68025C2.01703 2.75004 2.34209 2.87369 2.59376 3.09748C2.84543 3.32128 3.00622 3.62965 3.04562 3.96412L4.93762 20.0516C5.13405 21.7247 5.93791 23.2674 7.19662 24.387C8.45534 25.5066 10.0813 26.125 11.7659 26.125H26.125C26.4897 26.125 26.8394 25.9801 27.0973 25.7223C27.3551 25.4644 27.5 25.1147 27.5 24.75C27.5 24.3853 27.3551 24.0356 27.0973 23.7777C26.8394 23.5199 26.4897 23.375 26.125 23.375H11.7659C10.9127 23.3752 10.0805 23.1108 9.38384 22.6183C8.68719 22.1258 8.16039 21.4294 7.876 20.625H24.2784C25.8901 20.6252 27.4506 20.0591 28.6874 19.0256C29.9241 17.9922 30.7585 16.5571 31.0447 14.971C31.0769 14.7932 31.0736 14.6109 31.0353 14.4343C30.9969 14.2578 30.9241 14.0906 30.821 13.9422C30.718 13.7938 30.5867 13.6672 30.4347 13.5696C30.2827 13.4719 30.1129 13.4052 29.9351 13.3733Z" fill="white"/>
</g>
<defs>
<clipPath id="clip0_34_423">
<rect width="33" height="33" fill="white"/>
</clipPath>
</defs>
</svg>