<svg width="26" height="25" viewBox="0 0 26 25" fill="none" xmlns="http://www.w3.org/2000/svg">
<path d="M19.5 16.1458C19.3574 16.1466 19.2161 16.1204 19.0841 16.0685C18.9521 16.0167 18.8321 15.9403 18.7308 15.8438L13.7692 11.0625C13.6685 10.9649 13.5486 10.8874 13.4166 10.8345C13.2846 10.7816 13.143 10.7544 13 10.7544C12.857 10.7544 12.7154 10.7816 12.5834 10.8345C12.4514 10.8874 12.3315 10.9649 12.2308 11.0625L7.26916 15.8438C7.06517 16.0399 6.78849 16.1501 6.5 16.1501C6.2115 16.1501 5.93483 16.0399 5.73083 15.8438C5.52684 15.6476 5.41223 15.3816 5.41223 15.1042C5.41223 14.9668 5.44037 14.8308 5.49503 14.7039C5.5497 14.577 5.62982 14.4617 5.73083 14.3646L10.7033 9.59376C11.3208 9.02338 12.1438 8.70483 13 8.70483C13.8562 8.70483 14.6792 9.02338 15.2967 9.59376L20.2692 14.3646C20.3707 14.4614 20.4513 14.5766 20.5063 14.7036C20.5613 14.8305 20.5896 14.9667 20.5896 15.1042C20.5896 15.2417 20.5613 15.3778 20.5063 15.5048C20.4513 15.6317 20.3707 15.7469 20.2692 15.8438C20.1679 15.9403 20.0479 16.0167 19.9159 16.0685C19.7839 16.1204 19.6426 16.1466 19.5 16.1458Z" fill="black"/>
</svg>