<svg width="53" height="58" viewBox="0 0 53 58" fill="none" xmlns="http://www.w3.org/2000/svg">
<g clip-path="url(#clip0_3_929)">
<path d="M17.4257 28.9415H13.0693C10.6667 28.9415 8.71287 31.1049 8.71287 33.7651V38.5887C8.71287 41.2489 10.6667 43.4123 13.0693 43.4123H17.4257C19.8283 43.4123 21.7822 41.2489 21.7822 38.5887V33.7651C21.7822 31.1049 19.8283 28.9415 17.4257 28.9415ZM13.0693 38.5887V33.7651H17.4257V38.5887H13.0693ZM41.3861 4.82359H39.2079V2.41179C39.2079 1.08048 38.2343 0 37.0297 0C35.8251 0 34.8515 1.08048 34.8515 2.41179V4.82359H17.4257V2.41179C17.4257 1.08048 16.4521 0 15.2475 0C14.043 0 13.0693 1.08048 13.0693 2.41179V4.82359H10.8911C4.88574 4.82359 0 10.2332 0 16.8826V45.8241C0 52.4734 4.88574 57.8831 10.8911 57.8831H41.3861C47.3915 57.8831 52.2772 52.4734 52.2772 45.8241V16.8826C52.2772 10.2332 47.3915 4.82359 41.3861 4.82359ZM10.8911 9.64718H41.3861C44.9889 9.64718 47.9208 12.8935 47.9208 16.8826V19.2944H4.35644V16.8826C4.35644 12.8935 7.28832 9.64718 10.8911 9.64718ZM41.3861 53.0595H10.8911C7.28832 53.0595 4.35644 49.8132 4.35644 45.8241V24.1179H47.9208V45.8241C47.9208 49.8132 44.9889 53.0595 41.3861 53.0595Z" fill="white"/>
</g>
<defs>
<clipPath id="clip0_3_929">
<rect width="52.2772" height="57.8831" fill="white"/>
</clipPath>
</defs>
</svg>