<svg width="59" height="55" viewBox="0 0 59 55" fill="none" xmlns="http://www.w3.org/2000/svg">
<g clip-path="url(#clip0_3_846)">
<path d="M58.1436 44.1616L40.854 4.15968C39.3287 0.69554 35.046 -0.981022 31.2938 0.432728L29.0327 1.28913C28.424 1.52023 27.8789 1.84195 27.3704 2.19992C26.0309 0.854134 24.1291 -0.00227233 22.0024 -0.00227233H7.33333C3.29022 -6.70552e-06 0 3.04952 0 6.79687V47.5781C0 51.3255 3.29022 54.375 7.33333 54.375H22C26.0431 54.375 29.3333 51.3255 29.3333 47.5781V20.1527L42.2987 50.1541C43.8264 53.65 48.2069 55.2744 51.854 53.872L54.1176 53.0156C57.7964 51.7151 59.7056 47.4988 58.1436 44.1616ZM33.1809 16.8698L39.9716 14.3052L50.1673 37.8948L43.3767 40.4595L33.1809 16.8698ZM30.8782 5.48507L33.1393 4.62866C34.3518 4.16195 35.8209 4.6989 36.322 5.8589L38.1553 10.0979L31.3671 12.6626L29.5411 8.43492C29.0327 7.27945 29.634 5.95406 30.8831 5.48281L30.8782 5.48507ZM4.88889 15.8594H12.2222V38.5156H4.88889V15.8594ZM17.1111 15.8594H24.4444V38.5156H17.1111V15.8594ZM24.4444 6.79687V11.3281H17.1111V4.53124H22C23.3469 4.53124 24.4444 5.54624 24.4444 6.79687ZM7.33333 4.53124H12.2222V11.3281H4.88889V6.79687C4.88889 5.54624 5.98644 4.53124 7.33333 4.53124ZM4.88889 47.5781V43.0469H12.2222V49.8437H7.33333C5.98644 49.8437 4.88889 48.8287 4.88889 47.5781ZM22 49.8437H17.1111V43.0469H24.4444V47.5781C24.4444 48.8287 23.3469 49.8437 22 49.8437ZM53.6042 47.5985C53.35 48.1581 52.8782 48.5909 52.2744 48.8197L50.0109 49.6761C48.7618 50.1428 47.3342 49.5923 46.8331 48.4526L45.1978 44.6668L51.9884 42.1021L53.614 45.8653C53.8633 46.4249 53.8609 47.0434 53.6067 47.6008L53.6042 47.5985Z" fill="white"/>
</g>
<defs>
<clipPath id="clip0_3_846">
<rect width="58.6667" height="54.375" fill="white"/>
</clipPath>
</defs>
</svg>