<svg width="59" height="56" viewBox="0 0 59 56" fill="none" xmlns="http://www.w3.org/2000/svg">
<g clip-path="url(#clip0_3_931)">
<path d="M46.4444 0H24.4444C17.7051 0 12.2222 5.19998 12.2222 11.5916V13.9099H11C4.93533 13.9099 0 18.5906 0 24.3423V47.5254C0 51.9975 3.83533 55.6372 8.55311 55.6395H46.4444C53.1838 55.6395 58.6667 50.4396 58.6667 44.048V11.5916C58.6667 5.19998 53.1838 0 46.4444 0ZM12.2222 47.5254C12.2222 49.4427 10.5771 51.0029 8.55556 51.0029C6.534 51.0029 4.88889 49.4427 4.88889 47.5254V24.3423C4.88889 21.1477 7.63156 18.5465 11 18.5465H12.2222V47.5254ZM53.7778 44.048C53.7778 47.8825 50.4876 51.0029 46.4444 51.0029H16.2849C16.8129 49.9481 17.1111 48.7704 17.1111 47.5254V11.5916C17.1111 7.75708 20.4013 4.63663 24.4444 4.63663H46.4444C50.4876 4.63663 53.7778 7.75708 53.7778 11.5916V44.048ZM48.8889 16.2282C48.8889 17.5079 47.7938 18.5465 46.4444 18.5465H39.1111C37.7618 18.5465 36.6667 17.5079 36.6667 16.2282C36.6667 14.9485 37.7618 13.9099 39.1111 13.9099H46.4444C47.7938 13.9099 48.8889 14.9485 48.8889 16.2282ZM48.8889 25.5015C48.8889 26.7812 47.7938 27.8198 46.4444 27.8198H24.4444C23.0951 27.8198 22 26.7812 22 25.5015C22 24.2217 23.0951 23.1831 24.4444 23.1831H46.4444C47.7938 23.1831 48.8889 24.2217 48.8889 25.5015ZM48.8889 34.7747C48.8889 36.0544 47.7938 37.093 46.4444 37.093H24.4444C23.0951 37.093 22 36.0544 22 34.7747C22 33.495 23.0951 32.4564 24.4444 32.4564H46.4444C47.7938 32.4564 48.8889 33.495 48.8889 34.7747ZM48.8889 44.048C48.8889 45.3277 47.7938 46.3663 46.4444 46.3663H24.4444C23.0951 46.3663 22 45.3277 22 44.048C22 42.7683 23.0951 41.7296 24.4444 41.7296H46.4444C47.7938 41.7296 48.8889 42.7683 48.8889 44.048ZM22 16.2282V11.5916C22 10.3119 23.0951 9.27326 24.4444 9.27326H29.3333C30.6827 9.27326 31.7778 10.3119 31.7778 11.5916V16.2282C31.7778 17.5079 30.6827 18.5465 29.3333 18.5465H24.4444C23.0951 18.5465 22 17.5079 22 16.2282Z" fill="white"/>
</g>
<defs>
<clipPath id="clip0_3_931">
<rect width="58.6667" height="55.6395" fill="white"/>
</clipPath>
</defs>
</svg>