<svg width="57" height="55" viewBox="0 0 57 55" fill="none" xmlns="http://www.w3.org/2000/svg">
<g clip-path="url(#clip0_3_850)">
<path d="M3.11984 16.3986C1.13282 12.5108 -2.80846 2.87508 2.80856 0.339846C3.64367 0.00331655 4.56328 -0.0852536 5.45052 0.0853925C6.33775 0.256039 7.15254 0.678195 7.79133 1.2982L19.3998 13.306C19.6191 13.5146 19.7938 13.7629 19.914 14.0368C20.0341 14.3108 20.0974 14.6049 20.1001 14.9025C20.1028 15.2001 20.045 15.4953 19.9298 15.7712C19.8147 16.0472 19.6445 16.2985 19.4291 16.5107C19.2136 16.723 18.9571 16.8922 18.6741 17.0085C18.3912 17.1248 18.0873 17.186 17.7799 17.1886C17.4725 17.1913 17.1675 17.1352 16.8825 17.0238C16.5974 16.9123 16.3379 16.7476 16.1186 16.5391L4.6809 4.7125C4.95941 13.2698 10.1645 19.6656 16.0109 26.0977C16.4597 26.5153 16.7187 27.0884 16.731 27.6909C16.7433 28.2934 16.5078 28.876 16.0764 29.3104C15.645 29.7448 15.053 29.9956 14.4306 30.0075C13.8083 30.0194 13.2065 29.7914 12.7577 29.3738C8.91592 25.521 5.66972 21.1507 3.11984 16.3986ZM42.1394 36.7031C41.8205 36.365 41.4223 36.1061 40.9782 35.9483C40.5342 35.7906 40.0575 35.7386 39.5884 35.7969C36.8733 36.1497 34.1115 35.9255 31.4952 35.1398C31.0945 35.0254 30.6693 35.0185 30.2649 35.1198C29.8605 35.2212 29.4921 35.427 29.1992 35.7153C25.7026 40.8266 36.8618 40.5026 39.2911 40.4278L52.1237 53.6568C52.3344 53.8737 52.5871 54.0483 52.8675 54.1706C53.1479 54.293 53.4504 54.3606 53.7578 54.3698C54.0653 54.3789 54.3715 54.3294 54.6592 54.224C54.9468 54.1185 55.2101 53.9593 55.4342 53.7554C55.6583 53.5514 55.8386 53.3067 55.965 53.0353C56.0914 52.7639 56.1613 52.471 56.1707 52.1734C56.1802 51.8758 56.129 51.5793 56.0201 51.3009C55.9112 51.0225 55.7467 50.7675 55.536 50.5506L42.1394 36.7031ZM35.1064 31.7188C36.6431 31.7209 38.1652 31.4294 39.5853 30.861C41.0054 30.2926 42.2957 29.4584 43.3822 28.4064L55.4845 16.6886C55.7021 16.4782 55.8748 16.2285 55.9927 15.9535C56.1106 15.6786 56.1714 15.3838 56.1716 15.0861C56.1718 14.7884 56.1114 14.4936 55.9939 14.2185C55.8765 13.9434 55.7042 13.6934 55.4869 13.4827C55.2696 13.2721 55.0115 13.1049 54.7275 12.9908C54.4435 12.8767 54.139 12.8179 53.8315 12.8176C53.524 12.8174 53.2194 12.8759 52.9352 12.9896C52.651 13.1033 52.3928 13.2701 52.1752 13.4805L40.0728 25.1983C39.045 26.1846 37.7275 26.8393 36.3006 27.0729C34.8736 27.3065 33.407 27.1076 32.1013 26.5033L48.4632 10.6643C48.6868 10.4553 48.8651 10.2053 48.9877 9.92889C49.1104 9.65247 49.175 9.35518 49.1777 9.05435C49.1804 8.75352 49.1211 8.45518 49.0035 8.17675C48.8858 7.89831 48.712 7.64535 48.4923 7.43262C48.2725 7.2199 48.0112 7.05167 47.7236 6.93775C47.4359 6.82383 47.1277 6.76651 46.817 6.76912C46.5062 6.77174 46.1991 6.83424 45.9136 6.95298C45.628 7.07171 45.3698 7.24431 45.1539 7.4607L28.7873 23.2997C28.1631 22.0358 27.9576 20.616 28.1989 19.2347C28.4402 17.8533 29.1165 16.5779 30.1354 15.583L42.2447 3.86742C42.6711 3.44012 42.907 2.86782 42.9016 2.27378C42.8963 1.67974 42.6502 1.11149 42.2162 0.691428C41.7823 0.271363 41.1953 0.0330898 40.5816 0.0279278C39.968 0.0227657 39.3768 0.251128 38.9354 0.66383L26.8307 12.3794C24.9273 14.2282 23.7403 16.6555 23.4696 19.2524C23.1989 21.8494 23.8611 24.4573 25.3445 26.637L0.685796 50.5076C0.259469 50.9349 0.023567 51.5072 0.0288995 52.1012C0.034232 52.6953 0.280372 53.2635 0.714306 53.6836C1.14824 54.1036 1.73525 54.3419 2.3489 54.3471C2.96255 54.3522 3.55375 54.1239 3.99516 53.7112L28.6539 29.8405C30.568 31.0655 32.8119 31.7186 35.1064 31.7188Z" fill="white"/>
</g>
<defs>
<clipPath id="clip0_3_850">
<rect width="56.1702" height="54.375" fill="white"/>
</clipPath>
</defs>
</svg>