<svg width="55" height="55" viewBox="0 0 55 55" fill="none" xmlns="http://www.w3.org/2000/svg">
<g clip-path="url(#clip0_3_927)">
<path d="M27.5001 27.5C29.3131 27.5 31.0854 26.9624 32.5929 25.9551C34.1003 24.9479 35.2752 23.5163 35.969 21.8413C36.6628 20.1663 36.8444 18.3232 36.4907 16.545C36.137 14.7668 35.2639 13.1335 33.9819 11.8515C32.7 10.5695 31.0666 9.6965 29.2885 9.3428C27.5103 8.9891 25.6672 9.17064 23.9922 9.86444C22.3172 10.5582 20.8856 11.7332 19.8783 13.2406C18.8711 14.7481 18.3335 16.5203 18.3335 18.3333C18.3335 20.7645 19.2992 23.0961 21.0183 24.8151C22.7374 26.5342 25.069 27.5 27.5001 27.5ZM27.5001 13.75C28.4066 13.75 29.2928 14.0188 30.0465 14.5224C30.8002 15.0261 31.3877 15.7419 31.7346 16.5794C32.0815 17.4169 32.1722 18.3384 31.9954 19.2275C31.8185 20.1166 31.382 20.9332 30.741 21.5742C30.1 22.2152 29.2834 22.6518 28.3943 22.8286C27.5052 23.0054 26.5837 22.9147 25.7462 22.5678C24.9087 22.2209 24.1928 21.6334 23.6892 20.8797C23.1856 20.126 22.9168 19.2398 22.9168 18.3333C22.9168 17.1178 23.3997 15.952 24.2592 15.0924C25.1188 14.2329 26.2846 13.75 27.5001 13.75ZM47.346 20.9848L45.6983 20.4371C45.9948 17.8702 45.7453 15.2697 44.9663 12.806C44.1873 10.3423 42.8963 8.07116 41.1779 6.14142C39.4596 4.21167 37.3527 2.66695 34.9955 1.60855C32.6383 0.550154 30.084 0.00198798 27.5001 0C24.8825 0.00101055 22.2955 0.563049 19.9134 1.64825C17.5313 2.73344 15.4094 4.31659 13.6908 6.29103C11.9722 8.26546 10.6967 10.5853 9.95034 13.0943C9.20394 15.6033 9.00396 18.2431 9.36388 20.8358C7.17083 21.2447 5.14291 22.2794 3.52471 23.815C2.40448 24.88 1.51393 26.163 0.907807 27.5849C0.301682 29.0068 -0.00720815 30.5376 0.000127662 32.0833V41.4219C0.00494382 43.8999 0.810901 46.31 2.29773 48.2924C3.78456 50.2749 5.87255 51.7234 8.25013 52.4219L14.8272 54.4844C15.9319 54.8282 17.0825 55.0021 18.2395 55C19.2891 54.9987 20.3336 54.8553 21.3447 54.5737L34.5905 50.655C35.7706 50.3329 37.0153 50.3329 38.1953 50.655L43.6655 52.4883C45.0137 52.8165 46.4188 52.8343 47.7749 52.5404C49.1309 52.2466 50.4026 51.6487 51.494 50.7919C52.5854 49.935 53.468 48.8416 54.0754 47.5941C54.6827 46.3465 54.9989 44.9773 55.0001 43.5898V31.79C54.9949 29.4191 54.2566 27.1078 52.8862 25.1729C51.5159 23.2381 49.5808 21.7767 47.346 20.9848ZM17.7789 8.62125C19.0536 7.34133 20.5686 6.32574 22.2368 5.63276C23.905 4.93978 25.6937 4.58306 27.5001 4.58306C29.3066 4.58306 31.0952 4.93978 32.7634 5.63276C34.4317 6.32574 35.9466 7.34133 37.2214 8.62125C39.793 11.2089 41.2385 14.7075 41.2432 18.3556C41.2479 22.0038 39.8115 25.5062 37.2466 28.1004L29.1043 36.0181C28.6793 36.4348 28.1079 36.6682 27.5127 36.6682C26.9176 36.6682 26.3461 36.4348 25.9212 36.0181L17.7789 28.1348C15.2018 25.5415 13.7554 22.034 13.7554 18.378C13.7554 14.722 15.2018 11.2145 17.7789 8.62125ZM50.4168 43.5898C50.4182 44.2839 50.2612 44.9692 49.9578 45.5934C49.6544 46.2177 49.2126 46.7645 48.666 47.1923C48.1494 47.6076 47.5478 47.904 46.9038 48.0604C46.2598 48.2169 45.5892 48.2295 44.9397 48.0975L39.5658 46.2917C37.533 45.7077 35.3787 45.695 33.3393 46.255L20.0843 50.1692C18.8108 50.5205 17.463 50.4974 16.2022 50.1027L9.57013 48.0402C8.13475 47.6251 6.87274 46.7556 5.97358 45.5623C5.07443 44.3689 4.58664 42.9161 4.58346 41.4219V32.0833C4.57831 31.157 4.76269 30.2394 5.12526 29.387C5.48784 28.5345 6.02094 27.7653 6.69179 27.1265C7.74197 26.1256 9.07975 25.4796 10.5166 25.2794C11.4404 27.5692 12.816 29.6494 14.5614 31.3958L22.7358 39.309C24.0134 40.56 25.7303 41.2606 27.5185 41.2606C29.3066 41.2606 31.0235 40.56 32.3012 39.309L40.4664 31.3729C42.2945 29.5374 43.7109 27.3336 44.6212 24.9081L45.8518 25.316C47.1864 25.7943 48.3409 26.6726 49.1579 27.8312C49.9749 28.9898 50.4145 30.3723 50.4168 31.79V43.5898Z" fill="white"/>
</g>
<defs>
<clipPath id="clip0_3_927">
<rect width="55" height="55" fill="white"/>
</clipPath>
</defs>
</svg>