<svg width="59" height="52" viewBox="0 0 59 52" fill="none" xmlns="http://www.w3.org/2000/svg">
<g clip-path="url(#clip0_3_841)">
<path d="M29.3333 25.5113C32.2341 25.5113 35.0697 24.7632 37.4817 23.3616C39.8936 21.96 41.7734 19.9678 42.8835 17.637C43.9936 15.3062 44.2841 12.7415 43.7181 10.2671C43.1522 7.79279 41.7554 5.51995 39.7042 3.73605C37.653 1.95214 35.0397 0.737281 32.1946 0.245102C29.3496 -0.247077 26.4006 0.00552684 23.7206 0.970971C21.0406 1.93642 18.75 3.57134 17.1384 5.66899C15.5268 7.76665 14.6666 10.2328 14.6666 12.7556C14.6705 16.1376 16.217 19.3801 18.9667 21.7715C21.7164 24.1629 25.4446 25.5079 29.3333 25.5113ZM29.3333 4.25189C31.2672 4.25189 33.1576 4.75062 34.7655 5.68503C36.3735 6.61943 37.6267 7.94754 38.3668 9.5014C39.1068 11.0553 39.3005 12.7651 38.9232 14.4146C38.5459 16.0642 37.6147 17.5794 36.2472 18.7687C34.8798 19.958 33.1375 20.7679 31.2408 21.096C29.3441 21.4241 27.3782 21.2557 25.5915 20.6121C23.8048 19.9685 22.2778 18.8785 21.2034 17.4801C20.129 16.0816 19.5555 14.4375 19.5555 12.7556C19.5555 10.5003 20.5857 8.33734 22.4194 6.74258C24.253 5.14782 26.7401 4.25189 29.3333 4.25189Z" fill="white"/>
<path d="M29.3334 29.7632C23.5006 29.7688 17.9086 31.7864 13.7842 35.3734C9.65977 38.9604 7.33984 43.8238 7.33337 48.8966C7.33337 49.4604 7.59091 50.0012 8.04934 50.3999C8.50776 50.7986 9.12951 51.0226 9.77782 51.0226C10.4261 51.0226 11.0479 50.7986 11.5063 50.3999C11.9647 50.0012 12.2223 49.4604 12.2223 48.8966C12.2223 44.9498 14.025 41.1646 17.234 38.3737C20.4429 35.5829 24.7952 34.015 29.3334 34.015C33.8715 34.015 38.2238 35.5829 41.4328 38.3737C44.6417 41.1646 46.4445 44.9498 46.4445 48.8966C46.4445 49.4604 46.702 50.0012 47.1604 50.3999C47.6189 50.7986 48.2406 51.0226 48.8889 51.0226C49.5372 51.0226 50.159 50.7986 50.6174 50.3999C51.0758 50.0012 51.3334 49.4604 51.3334 48.8966C51.3269 43.8238 49.007 38.9604 44.8826 35.3734C40.7582 31.7864 35.1662 29.7688 29.3334 29.7632Z" fill="white"/>
</g>
<defs>
<clipPath id="clip0_3_841">
<rect width="58.6667" height="51.0226" fill="white"/>
</clipPath>
</defs>
</svg>